<?xml version="1.0" encoding="utf-8"?>
<!-- Generator: Adobe Illustrator 27.7.0, SVG Export Plug-In . SVG Version: 6.00 Build 0)  -->
<svg version="1.2" baseProfile="tiny" id="g-ai2html_demo_ar-Artboard_1-interactions-img" xmlns="http://www.w3.org/2000/svg" xmlns:xlink="http://www.w3.org/1999/xlink"
	 x="0px" y="0px" viewBox="0 0 700 500" overflow="visible" xml:space="preserve">
<g>
	<path id="maine_00000151531239129904503490000009141836226201988256_" fill="#BFBFBF" stroke="#000000" stroke-miterlimit="10" d="
		M209.239,51.527l-1.515-1.313l-3.454-10.963l2.364-4.19l-0.473-0.919l0.238-3.878l1.759-5.124l1.71,1.176l2.309-1.664l2.122,1.035
		l2.315,7.756l1.649,0.098l0.806,2.312l1.234-0.095l1.06,1.536l-0.547,1.163l-2.443,1.502l-1.716,2.177l-2.336,0.315l-0.391,2.18
		l-1.557,1.573l-1.68,0.244l-0.168,1.649L209.239,51.527z"/>
	<path id="texas_00000035514120161781039690000008778173524167185314_" fill="#BFBFBF" stroke="#000000" stroke-miterlimit="10" d="
		M50.88,129.167l-0.302-1.307l17.473,1.631l2.064-26.341l0.183,0.012l13.965,0.815l-0.479,11.393l1.411,1.112l2.089-0.055
		l0.305,1.121l4.883,0.727l0.941,1.38l1.438-0.611l2.388,1.527l1.481-0.663l2.84,0.504l3.445-0.956l2.083-0.043l3.136,1.716
		l2.15,0.464l0.067,3.127l0.122,5.973l1.118,1.298l1.628,4.345l-0.989,2.651l0.107,3.038l-0.544,2.125l-3.826,1.368l-0.531-1.478
		l-1.57,0.391l0.589,2.037l-2.327,2.409l-2.351,1.365l-1.985,0.452l-2.452,1.451l-1.964,1.802l-1.087,1.872l-1.231,4.022
		l0.302,3.197l0.718,2.092l-2.012,0.345l-3.173-0.363l-2.999-1.799l-1.502-0.369l-1.646-3.506l-0.076-2.684l-1.997-1.896
		l-2.214-3.759l-1.551-3.97l-3.863-4.177l-4.348-0.788l-1.753,0.644l-1.64,3.164l-1.756,0.999l-3.701-2.272l-2.217-2.061
		l-1.475-5.585l-2.324-1.896l-2.467-3.243L50.88,129.167z"/>
	
		<path id="florida_00000158722373543481696980000002475613950119327920_" fill="#BFBFBF" stroke="#000000" stroke-miterlimit="10" d="
		M145.618,138.93l0.351-2.345l-1.124-1.789l12.911-1.341l0.879,1.597l13.299-0.913l1.096-1.692l2.611,0.302l1.762,5.185l2.04,3.429
		l2.501,2.91l0.159,1.902l4.336,7.86l0.479,5.915l-0.91,3.182l-3.496,1.35l-0.412-1.31l-2.07-2.666l-1.182,0.006l-1.854-2.809
		l-2.168-1.768l-2.724-3.466l-1.182-2.422l0.44-4.193l-1.334-3.142l-1.838-0.522l-2.822-3.124l-2.101-1.008l-1.646,0.47
		l-2.128,2.018l-2.147,0.699l-0.901-1.405l-2.553-1.347l-3.893-0.66L145.618,138.93z"/>
	<path id="wc_x2F_icon_00000010311203926246531940000008103213495223413930_" fill="#1F77B4" d="M353.426,134.762
		c0.003,1.082-0.224,2.153-0.666,3.141c-1.165,2.6-6.76,10.109-6.76,10.109s-5.574-7.509-6.76-10.109
		c-0.442-0.988-0.669-2.059-0.666-3.141c-0.035-4.135,3.29-7.516,7.425-7.55c0,0,0,0,0.001,0
		C350.135,127.246,353.46,130.626,353.426,134.762C353.426,134.762,353.426,134.762,353.426,134.762z"/>
	<path id="sl_x2F_icon_00000013913027575709747220000017795070657738242727_" fill="#1F77B4" d="M374.426,154.762
		c0.003,1.082-0.224,2.153-0.666,3.141c-1.165,2.6-6.76,10.109-6.76,10.109s-5.574-7.509-6.76-10.109
		c-0.442-0.988-0.669-2.059-0.666-3.141c-0.035-4.135,3.29-7.516,7.425-7.55c0,0,0,0,0.001,0
		C371.135,147.246,374.46,150.626,374.426,154.762C374.426,154.762,374.426,154.762,374.426,154.762z"/>
</g>
<style>
#g-ai2html_demo_ar-Artboard_1-interactions-img rect, #g-ai2html_demo_ar-Artboard_1-interactions-img circle, #g-ai2html_demo_ar-Artboard_1-interactions-img path, #g-ai2html_demo_ar-Artboard_1-interactions-img line, #g-ai2html_demo_ar-Artboard_1-interactions-img polyline, #g-ai2html_demo_ar-Artboard_1-interactions-img polygon { vector-effect: non-scaling-stroke; }
</style>
</svg>

