<?xml version="1.0" encoding="utf-8"?>
<!-- Generator: Adobe Illustrator 27.7.0, SVG Export Plug-In . SVG Version: 6.00 Build 0)  -->
<svg version="1.2" baseProfile="tiny" xmlns="http://www.w3.org/2000/svg" xmlns:xlink="http://www.w3.org/1999/xlink" x="0px"
	 y="0px" viewBox="0 0 1920 1080" overflow="visible" xml:space="preserve">
<g id="non-villains_copy" display="none">
	
		<image display="inline" width="690" height="982" id="hide_and_seek_00000129195098729720684450000005065180956042818450_" xlink:href="9B132B1B0FAB33B5.jpg"  transform="matrix(0.3304 0 0 0.3299 1129.4521 51.592)">
	</image>
	
		<image display="inline" width="350" height="500" id="sea_fog_00000017497396479087477560000015615762200502364040_" xlink:href="mainstream posters/2010s/해무.jpeg"  transform="matrix(0.6514 0 0 0.648 1360.26 51.592)">
	</image>
	
		<image display="inline" width="1000" height="1407" id="missing_00000057106633067394432590000018232359413798425995_" xlink:href="9B132B1B0FAB33B2.jpg"  transform="matrix(0.228 0 0 0.2303 1129.4521 378)">
	</image>
	
		<image display="inline" width="220" height="314" id="steel_rain_00000095302626653705805010000005565641049059289473_" xlink:href="mainstream posters/2010s/강철비.jpeg"  transform="matrix(1.0364 0 0 1.0318 667.8362 704.408)">
	</image>
	
		<image display="inline" width="1611" height="2296" id="beautiful_days_00000094604398260068528730000001102796877080066695_" xlink:href="mainstream posters/2010s/뷰티풀데이즈.jpeg"  transform="matrix(0.1415 0 0 0.1411 1129.4521 704.408)">
	</image>
</g>
<g id="villains_copy" display="none">
	
		<image display="inline" width="900" height="1280" id="the_yellow_sea_00000000901679101432126210000013196519553889364379_" xlink:href="9B132B1B0FAB33BF.jpg"  transform="matrix(0.2533 0 0 0.2531 206.2203 51.592)">
	</image>
	
		<image display="inline" width="230" height="330" id="countdown_00000123419833748347131410000000746202886870710939_" xlink:href="mainstream posters/2010s/카운트다운.jpeg"  transform="matrix(0.9913 0 0 0.9818 437.0283 51.592)">
	</image>
	
		<image display="inline" width="582" height="832" id="traffickers_00000176736600729160119980000007732096019078883244_" xlink:href="9B132B1B0FAB33B3.jpg"  transform="matrix(0.3918 0 0 0.3894 667.8362 51.592)">
	</image>
	
		<image display="inline" width="325" height="464" id="the_new_world_00000072245106895138256490000004775723941644107930_" xlink:href="mainstream posters/2010s/신세계.jpeg"  transform="matrix(0.7015 0 0 0.6983 898.6442 51.592)">
	</image>
	
		<image display="inline" width="1787" height="2560" id="chinatown_00000160897595222393569510000007294634483385247148_" xlink:href="mainstream posters/2010s/차이나타운.jpeg"  transform="matrix(0.1276 0 0 0.1266 206.2203 378)">
	</image>
	
		<image display="inline" width="660" height="950" id="veteran_00000114783300535608484280000008612216594422246831_" xlink:href="mainstream posters/2010s/베테랑.jpeg"  transform="matrix(0.3455 0 0 0.3411 437.0283 378)">
	</image>
	
		<image display="inline" width="2000" height="2865" id="the_advocate_00000116944881873383306520000000789738962256358302_" xlink:href="mainstream posters/2010s/성난 변호사.jpeg"  transform="matrix(0.114 0 0 0.1131 667.8362 378)">
	</image>
	
		<image display="inline" width="850" height="1213" id="asura_00000157267303215663718000000000031532756067736988_" xlink:href="69C53AE943BE793A.jpg"  transform="matrix(0.2682 0 0 0.2671 898.6442 378)">
	</image>
	
		<image display="inline" width="350" height="500" id="midnight_runners_00000060731687393446762430000011730985107077643693_" xlink:href="mainstream posters/2010s/청년경찰.jpeg"  transform="matrix(0.6514 0 0 0.648 1360.26 378)">
	</image>
	
		<image display="inline" width="1000" height="1430" id="the_villainess_00000142876810359389278750000013072090998557313175_" xlink:href="69C53AE943BE7936.jpg"  transform="matrix(0.228 0 0 0.2266 206.2203 704.408)">
	</image>
	
		<image display="inline" width="1000" height="1432" id="the_outlaws_00000183952308296720737710000002400910881477346439_" xlink:href="69C53AE943BE792A.jpg"  transform="matrix(0.228 0 0 0.2263 437.0283 704.408)">
	</image>
	
		<image display="inline" width="1000" height="1429" id="rv_00000141435403323594802880000017688726997973045951_" xlink:href="mainstream posters/2010s/희생부활자.jpeg"  transform="matrix(0.228 0 0 0.2267 898.6442 704.408)">
	</image>
	
		<image display="inline" width="600" height="860" id="idol_00000113336633610428248010000009109315372785715115_" xlink:href="69C53AE943BE792E.jpg"  transform="matrix(0.38 0 0 0.3767 1360.26 704.408)">
	</image>
</g>
<g id="non-villains">
	
		<image width="690" height="982" id="hide_and_seek" xlink:href="69C53AE943BE7929.jpg"  transform="matrix(0.3304 0 0 0.3299 1129.4521 51.592)">
	</image>
	
		<image width="350" height="500" id="sea_fog" xlink:href="mainstream posters/2010s/해무.jpeg"  transform="matrix(0.6514 0 0 0.648 1360.26 51.592)">
	</image>
	
		<image width="1000" height="1407" id="missing" xlink:href="69C53AE943BE794F.jpg"  transform="matrix(0.228 0 0 0.2303 1129.4521 378)">
	</image>
	
		<image width="220" height="314" id="steel_rain" xlink:href="mainstream posters/2010s/강철비.jpeg"  transform="matrix(1.0364 0 0 1.0318 667.8362 704.408)">
	</image>
	
		<image width="1611" height="2296" id="beautiful_days" xlink:href="mainstream posters/2010s/뷰티풀데이즈.jpeg"  transform="matrix(0.1415 0 0 0.1411 1129.4521 704.408)">
	</image>
</g>
<g id="villains">
	<image width="1527" height="1122" xlink:href="69C53AE943BE7945.png"  transform="matrix(1 0 0 1 134 -21)">
	</image>
</g>
</svg>
