<?xml version="1.0" encoding="utf-8"?>
<!-- Generator: Adobe Illustrator 27.7.0, SVG Export Plug-In . SVG Version: 6.00 Build 0)  -->
<svg version="1.2" baseProfile="tiny" xmlns="http://www.w3.org/2000/svg" xmlns:xlink="http://www.w3.org/1999/xlink" x="0px"
	 y="0px" viewBox="0 0 1920 1080" overflow="visible" xml:space="preserve">
<g id="villains">
	
		<image width="900" height="1280" id="the_yellow_sea" xlink:href="2D2DC6D9DD9B628F.jpg"  transform="matrix(0.2533 0 0 0.2531 206.2203 51.592)">
	</image>
	
		<image width="230" height="330" id="countdown" xlink:href="mainstream posters/2010s/카운트다운.jpeg"  transform="matrix(0.9913 0 0 0.9818 437.0283 51.592)">
	</image>
	
		<image width="582" height="832" id="traffickers" xlink:href="2D2DC6D9DD9B6293.jpg"  transform="matrix(0.3918 0 0 0.3894 667.8362 51.592)">
	</image>
	
		<image width="325" height="464" id="the_new_world" xlink:href="mainstream posters/2010s/신세계.jpeg"  transform="matrix(0.7015 0 0 0.6983 898.6442 51.592)">
	</image>
	
		<image width="1787" height="2560" id="chinatown" xlink:href="mainstream posters/2010s/차이나타운.jpeg"  transform="matrix(0.1276 0 0 0.1266 206.2203 378)">
	</image>
	
		<image width="660" height="950" id="veteran" xlink:href="mainstream posters/2010s/베테랑.jpeg"  transform="matrix(0.3455 0 0 0.3411 437.0283 378)">
	</image>
	
		<image width="2000" height="2865" id="the_advocate" xlink:href="mainstream posters/2010s/성난 변호사.jpeg"  transform="matrix(0.114 0 0 0.1131 667.8362 378)">
	</image>
	
		<image width="850" height="1213" id="asura" xlink:href="2D2DC6D9DD9B629D.jpg"  transform="matrix(0.2682 0 0 0.2671 898.6442 378)">
	</image>
	
		<image width="350" height="500" id="midnight_runners" xlink:href="mainstream posters/2010s/청년경찰.jpeg"  transform="matrix(0.6514 0 0 0.648 1360.26 378)">
	</image>
	
		<image width="1000" height="1430" id="the_villainess" xlink:href="879DBD7D07753EBC.jpg"  transform="matrix(0.228 0 0 0.2266 206.2203 704.408)">
	</image>
	
		<image width="1000" height="1432" id="the_outlaws" xlink:href="879DBD7D07753EBB.jpg"  transform="matrix(0.228 0 0 0.2263 437.0283 704.408)">
	</image>
	
		<image width="1000" height="1429" id="rv" xlink:href="mainstream posters/2010s/희생부활자.jpeg"  transform="matrix(0.228 0 0 0.2267 898.6442 704.408)">
	</image>
	
		<image width="600" height="860" id="idol" xlink:href="879DBD7D07753EB4.jpg"  transform="matrix(0.38 0 0 0.3767 1360.26 704.408)">
	</image>
</g>
<g id="non-villains">
	<image width="994" height="1050" xlink:href="879DBD7D07753EB4.png"  transform="matrix(1 0 0 1 631 15)">
	</image>
</g>
</svg>
